<svg width="1920" height="1080" viewBox="0 0 1920 1080" fill="none" xmlns="http://www.w3.org/2000/svg">
  <rect width="1920" height="1080" fill="#E8EDF9"/>
  <rect width="1920" height="1080" fill="url(#paint0_linear_bloom)"/>
  
  <g opacity="0.8" filter="url(#filter0_f_bloom)">
    <path d="M960 540C1200 400 1500 200 1300 100C1100 0 800 200 560 300C320 400 100 600 300 800C500 1000 800 900 960 540Z" fill="#60A5FA" fill-opacity="0.4"/>
    <path d="M960 540C720 680 420 880 620 980C820 1080 1120 880 1360 780C1600 680 1820 480 1620 280C1420 80 1120 180 960 540Z" fill="#818CF8" fill-opacity="0.4"/>
  </g>
  
  <g opacity="0.6" filter="url(#filter1_f_bloom)">
     <circle cx="600" cy="400" r="300" fill="#93C5FD"/>
     <circle cx="1320" cy="700" r="300" fill="#A78BFA"/>
  </g>

  <defs>
    <linearGradient id="paint0_linear_bloom" x1="960" y1="0" x2="960" y2="1080" gradientUnits="userSpaceOnUse">
      <stop stop-color="#EFF6FF"/>
      <stop offset="1" stop-color="#DBEAFE"/>
    </linearGradient>
    <filter id="filter0_f_bloom" x="0" y="0" width="1920" height="1080" filterUnits="userSpaceOnUse" colorInterpolationFilters="sRGB">
      <feFlood flood-opacity="0" result="BackgroundImageFix"/>
      <feBlend mode="normal" in="SourceGraphic" in2="BackgroundImageFix" result="shape"/>
      <feGaussianBlur stdDeviation="150" result="effect1_foregroundBlur_bloom"/>
    </filter>
    <filter id="filter1_f_bloom" x="0" y="0" width="1920" height="1080" filterUnits="userSpaceOnUse" colorInterpolationFilters="sRGB">
      <feFlood flood-opacity="0" result="BackgroundImageFix"/>
      <feBlend mode="normal" in="SourceGraphic" in2="BackgroundImageFix" result="shape"/>
      <feGaussianBlur stdDeviation="100" result="effect1_foregroundBlur_bloom2"/>
    </filter>
  </defs>
</svg>
